<?xml version="1.0" encoding="utf-8"?>
<!-- Generator: Adobe Illustrator 25.4.1, SVG Export Plug-In . SVG Version: 6.00 Build 0)  -->
<svg version="1.1" xmlns="http://www.w3.org/2000/svg" xmlns:xlink="http://www.w3.org/1999/xlink" x="0px" y="0px"
	 viewBox="0 0 216.1 216.9" style="enable-background:new 0 0 216.1 216.9;" xml:space="preserve">
<style type="text/css">
	.st0{fill:#FFFFFF;}
	.st1{fill:none;stroke:#000000;stroke-width:33;stroke-miterlimit:10;}
</style>
<g id="Layer_2">
	<rect y="0.4" class="st0" width="216.1" height="216.1"/>
</g>
<g id="Layer_1">
	<path class="st1" d="M126,36H93c-13.1,0-23.7,10.6-23.7,23.7v4.1c0,13.1,10.6,23.7,23.7,23.7h33c13.1,0,23.7-10.6,23.7-23.7v-4.1
		C149.7,46.6,139.1,36,126,36z"/>
	<path class="st1" d="M128.1,182.8H87.9c-13.1,0-23.7-10.6-23.7-23.7v-10.7c0-13.1,10.6-23.7,23.7-23.7h40.2
		c13.1,0,23.7,10.6,23.7,23.7v10.7C151.9,172.2,141.2,182.8,128.1,182.8z"/>
</g>
</svg>
