<?xml version="1.0" encoding="utf-8"?>
<!-- Generator: Adobe Illustrator 25.4.1, SVG Export Plug-In . SVG Version: 6.00 Build 0)  -->
<svg version="1.1" id="Layer_1" xmlns="http://www.w3.org/2000/svg" xmlns:xlink="http://www.w3.org/1999/xlink" x="0px" y="0px"
	 viewBox="0 0 440.6 216.9" style="enable-background:new 0 0 440.6 216.9;" xml:space="preserve">
<style type="text/css">
	.st0{fill:none;stroke:#000000;stroke-width:33;stroke-miterlimit:10;}
	.st1{fill:#FFFFFF;stroke:#000000;stroke-width:33;stroke-miterlimit:10;}
</style>
<path class="st0" d="M54,67.1H43.1c-13.2,0-23.9-10.7-23.9-23.9v-2.9c0-13.2,10.7-23.9,23.9-23.9H54c13.2,0,23.9,10.7,23.9,23.9v2.9
	C77.9,56.4,67.2,67.1,54,67.1z"/>
<path class="st0" d="M68.7,120.8H44.4c-13.9,0-25.1-11.3-25.1-25.1v-3c0-13.9,11.3-25.1,25.1-25.1h24.3c13.9,0,25.1,11.3,25.1,25.1
	v3C93.8,109.5,82.6,120.8,68.7,120.8z"/>
<rect x="16.3" y="16.4" class="st1" width="2.9" height="104.4"/>
<rect x="123.3" y="16.5" transform="matrix(-1 -1.224647e-16 1.224647e-16 -1 247.7724 135.0854)" class="st1" width="1.1" height="102"/>
<rect x="146.2" y="95.6" transform="matrix(-2.042118e-11 1 -1 -2.042118e-11 266.8342 -27.6822)" class="st1" width="2" height="47.9"/>
<path class="st0" d="M254.7,120.8H230c-16.5,0-29.8-13.3-29.8-29.8V46.3c0-16.5,13.3-29.8,29.8-29.8h24.7
	c16.5,0,29.8,13.3,29.8,29.8V91C284.5,107.4,271.2,120.8,254.7,120.8z"/>
<path class="st0" d="M391.2,81.2h-41.5c-16.5,0-29.8-13.3-29.8-29.8v-5.1c0-16.5,13.3-29.8,29.8-29.8h41.5
	c16.5,0,29.8,13.3,29.8,29.8v5.1C421,67.9,407.7,81.2,391.2,81.2z"/>
<path class="st0" d="M393.9,200.9h-50.5c-16.5,0-29.8-13.3-29.8-29.8v-13.4c0-16.5,13.3-29.8,29.8-29.8h50.5
	c16.5,0,29.8,13.3,29.8,29.8v13.4C423.7,187.6,410.3,200.9,393.9,200.9z"/>
</svg>
